<?xml version="1.0" encoding="UTF-8" standalone="no"?>
<!-- Created with Inkscape (http://www.inkscape.org/) -->

<svg
   xmlns:dc="http://purl.org/dc/elements/1.1/"
   xmlns:cc="http://creativecommons.org/ns#"
   xmlns:rdf="http://www.w3.org/1999/02/22-rdf-syntax-ns#"
   xmlns:svg="http://www.w3.org/2000/svg"
   xmlns="http://www.w3.org/2000/svg"
   xmlns:sodipodi="http://sodipodi.sourceforge.net/DTD/sodipodi-0.dtd"
   xmlns:inkscape="http://www.inkscape.org/namespaces/inkscape"
   width="210mm"
   height="297mm"
   viewBox="0 0 744.09448819 1052.3622047"
   id="svg2"
   version="1.1"
   inkscape:version="0.91 r13725"
   sodipodi:docname="logo.svg">
  <defs
     id="defs4" />
  <sodipodi:namedview
     id="base"
     pagecolor="#ffffff"
     bordercolor="#666666"
     borderopacity="1.0"
     inkscape:pageopacity="0.0"
     inkscape:pageshadow="2"
     inkscape:zoom="1.979899"
     inkscape:cx="395.02542"
     inkscape:cy="698.48994"
     inkscape:document-units="px"
     inkscape:current-layer="layer1"
     showgrid="false"
     inkscape:window-width="1366"
     inkscape:window-height="705"
     inkscape:window-x="0"
     inkscape:window-y="30"
     inkscape:window-maximized="1" />
  <metadata
     id="metadata7">
    <rdf:RDF>
      <cc:Work
         rdf:about="">
        <dc:format>image/svg+xml</dc:format>
        <dc:type
           rdf:resource="http://purl.org/dc/dcmitype/StillImage" />
        <dc:title></dc:title>
      </cc:Work>
    </rdf:RDF>
  </metadata>
  <g
     inkscape:label="Layer 1"
     inkscape:groupmode="layer"
     id="layer1">
    <rect
       style="opacity:1;fill:#000000;fill-opacity:1;stroke:#ffffff;stroke-width:1;stroke-linejoin:round;stroke-miterlimit:4;stroke-dasharray:none;stroke-opacity:1"
       id="rect3394"
       width="473.76154"
       height="120.20815"
       x="165.66502"
       y="180.60056" />
    <text
       xml:space="preserve"
       style="font-style:normal;font-variant:normal;font-weight:bold;font-stretch:normal;font-size:40px;line-height:125%;font-family:Daniel;-inkscape-font-specification:'Daniel Bold';text-align:end;letter-spacing:0px;word-spacing:0px;text-anchor:end;fill:#ffffff;fill-opacity:1;stroke:none;stroke-width:1px;stroke-linecap:butt;stroke-linejoin:miter;stroke-opacity:1;"
       x="188.19786"
       y="245.55365"
       id="text3336"
       sodipodi:linespacing="125%"><tspan
         sodipodi:role="line"
         x="188.19786"
         y="245.55365"
         style="font-style:normal;font-variant:normal;font-weight:bold;font-stretch:normal;font-size:40px;font-family:Daniel;-inkscape-font-specification:'Daniel Bold';text-align:start;text-anchor:start;fill:#ffffff;"
         id="tspan3364">Happy &amp; Productive</tspan></text>
    <text
       xml:space="preserve"
       style="font-style:normal;font-variant:normal;font-weight:bold;font-stretch:normal;font-size:40px;line-height:125%;font-family:Daniel;-inkscape-font-specification:'Daniel Bold';text-align:end;letter-spacing:0px;word-spacing:0px;text-anchor:end;fill:#ffffff;fill-opacity:1;stroke:none;stroke-width:1px;stroke-linecap:butt;stroke-linejoin:miter;stroke-opacity:1;"
       x="477.52521"
       y="237.42203"
       id="text3336-7"
       sodipodi:linespacing="125%"><tspan
         sodipodi:role="line"
         x="477.52521"
         y="237.42203"
         style="font-style:normal;font-variant:normal;font-weight:bold;font-stretch:normal;font-size:40px;font-family:Daniel;-inkscape-font-specification:'Daniel Bold';text-align:start;text-anchor:start;fill:#ffffff;"
         id="tspan3358-2" /><tspan
         sodipodi:role="line"
         x="477.52521"
         y="274.98172"
         style="font-style:normal;font-variant:normal;font-weight:bold;font-stretch:normal;font-size:20px;font-family:'League Spartan';-inkscape-font-specification:'League Spartan Bold';text-align:start;text-anchor:start;fill:#ffffff;"
         id="tspan3364-1"><tspan
   style="text-align:center;text-anchor:middle;fill:#ffffff;"
   id="tspan3366-7">happy-and-productive.</tspan>com</tspan></text>
    <path
       style="opacity:1;fill:#000000;fill-opacity:1;stroke:#000000;stroke-width:0.93024844;stroke-linejoin:round;stroke-miterlimit:4;stroke-dasharray:none;stroke-opacity:1"
       d="M 158.83398 367.66797 L 158.83398 472.94531 L 626.95117 472.94531 L 626.95117 367.66797 L 158.83398 367.66797 z M 483.77344 386.41016 C 483.94271 386.41016 484.25521 386.52735 484.71094 386.76172 C 484.85349 388.43354 484.93642 389.2617 484.96289 389.26953 C 484.9629 389.22703 484.96484 389.20681 484.96484 389.16406 L 484.96484 389.28125 C 484.96472 389.28125 484.96302 389.26957 484.96289 389.26953 C 484.96141 394.40502 484.8722 397.74416 484.69141 399.24219 C 484.78255 400.15364 484.82812 401.28646 484.82812 402.64062 C 484.82812 404.34636 484.76303 406.3711 484.63281 408.71484 C 484.33334 409.14453 483.91016 409.80208 483.36328 410.6875 L 482.62109 410.51172 L 482.64062 410.51172 C 482.64062 410.49872 481.42318 410.38804 478.98828 410.17969 L 475.33594 409.86719 C 473.77344 409.86719 471.69662 410.10157 469.10547 410.57031 C 466.27995 411.07813 464.65885 411.60547 464.24219 412.15234 C 464.20312 412.17841 463.83203 412.32815 463.12891 412.60156 C 462.42578 412.90104 462.07422 413.27865 462.07422 413.73438 C 462.07422 413.90365 462.28906 414.22265 462.71875 414.69141 C 463.14844 415.14713 463.53255 415.47266 463.87109 415.66797 C 465.01693 416.30599 466.33203 416.625 467.81641 416.625 C 468.63672 416.625 471.19531 416.29297 475.49219 415.62891 L 481.9375 414.61328 L 482.46484 414.61328 C 482.62109 414.61328 482.69922 414.74349 482.69922 415.00391 C 482.69922 415.26432 482.54948 415.64193 482.25 416.13672 C 481.95052 416.61849 481.66406 416.92447 481.39062 417.05469 C 480.76562 417.35417 478.5586 417.99219 474.76953 418.96875 C 471.82682 419.72396 469.69141 420.10156 468.36328 420.10156 C 468.25911 420.11456 468.0638 420.12756 467.77734 420.14062 C 467.46484 420.14062 466.97657 420.15362 466.3125 420.17969 L 464.16406 420.23828 L 463.22656 419.82812 C 462.90104 419.81513 462.40625 419.68491 461.74219 419.4375 C 460.81771 418.77344 460.10807 418.07682 459.61328 417.34766 C 459.27474 416.83984 458.92317 416.07162 458.55859 415.04297 C 458.24609 414.11849 458.08984 413.52604 458.08984 413.26562 C 458.08984 412.61459 458.47396 411.83333 459.24219 410.92188 C 460.49219 409.41146 462.79037 408.31771 466.13672 407.64062 C 466.34505 407.53646 466.59245 407.40625 466.87891 407.25 C 468.23307 407.05469 469.63932 406.80078 471.09766 406.48828 C 472.11328 406.25391 473.63672 406.13672 475.66797 406.13672 C 479.09245 406.13672 480.96094 406.11719 481.27344 406.07812 C 481.36458 403.6172 481.61198 400.65495 482.01562 397.19141 C 481.82031 396.6315 481.70963 395.78515 481.68359 394.65234 C 481.73566 394.44401 481.76172 393.91667 481.76172 393.07031 C 481.76172 392.53646 481.74872 391.8789 481.72266 391.09766 L 481.72266 390.39453 C 481.72266 388.84505 481.83985 387.7513 482.07422 387.11328 C 482.24349 386.64453 482.8099 386.41016 483.77344 386.41016 z M 551.10547 387.99219 C 551.5612 387.99219 552.20573 388.73438 553.03906 390.21875 C 553.03906 390.47916 552.79818 391.07813 552.31641 392.01562 C 552.05599 392.32813 551.71745 392.80989 551.30078 393.46094 C 550.96223 394.52864 550.23958 396.53386 549.13281 399.47656 C 548.80729 400.32292 548.54036 401.67057 548.33203 403.51953 C 549.30859 403.79297 549.875 403.92969 550.03125 403.92969 L 551.08594 403.79297 C 551.98438 403.67578 552.62239 403.61719 553 403.61719 C 553.95052 403.61719 554.76433 403.69532 555.44141 403.85156 L 556.45703 404.08594 C 558.05859 404.08594 558.85937 404.44401 558.85938 405.16016 C 558.85938 405.61588 558.66406 405.96094 558.27344 406.19531 C 557.89584 406.42969 557.17318 406.64453 556.10547 406.83984 C 555.19402 407.02214 554.60157 407.21745 554.32812 407.42578 C 553.22135 407.56901 552.63541 407.64062 552.57031 407.64062 C 551.48958 407.64062 549.88802 407.79036 547.76562 408.08984 C 547.10156 408.16797 546.70443 408.38932 546.57422 408.75391 C 546.31381 409.49609 546.03386 410.65495 545.73438 412.23047 C 545.70831 413.57162 545.46091 415.72005 544.99219 418.67578 C 544.54948 419.28776 544.32813 419.61328 544.32812 419.65234 C 542.89583 419.57422 542.01041 419.35287 541.67188 418.98828 C 541.51563 418.80599 541.4375 418.31119 541.4375 417.50391 C 541.4375 416.51432 541.7435 413.49349 542.35547 408.44141 C 542.02995 408.15495 541.71745 408.01172 541.41797 408.01172 L 541.30078 408.01172 C 540.92317 408.06379 540.6237 408.08984 540.40234 408.08984 C 540.25912 408.08984 540.14844 408.07685 540.07031 408.05078 C 538.75521 407.98565 537.45312 407.93356 536.16406 407.89453 C 534.54948 407.62109 533.74219 406.8138 533.74219 405.47266 C 533.74219 405.01692 533.91796 404.60677 534.26953 404.24219 C 534.62109 403.8776 535.01823 403.69531 535.46094 403.69531 C 535.5 403.69531 535.86459 403.73437 536.55469 403.8125 C 537.25781 403.87763 537.63541 403.91016 537.6875 403.91016 C 537.71357 403.91016 538.01305 403.8841 538.58594 403.83203 C 539.17188 403.77996 539.48438 403.75391 539.52344 403.75391 C 539.5625 403.75391 539.72527 403.8125 540.01172 403.92969 C 540.28516 404.03385 540.44141 404.08594 540.48047 404.08594 C 540.5456 404.08594 540.92971 404.05988 541.63281 404.00781 C 542.30989 403.95575 542.66145 403.92969 542.6875 403.92969 C 543.35156 403.92969 543.76823 403.59766 543.9375 402.93359 C 544.08073 402.39974 544.29557 401.54687 544.58203 400.375 L 545.92969 396.56641 C 545.98175 396.05859 546.08592 395.375 546.24219 394.51562 C 546.58073 394.03386 546.91276 393.45443 547.23828 392.77734 C 548.76171 389.58724 550.05078 387.99219 551.10547 387.99219 z M 398.46875 388.20703 C 400.04427 388.20703 402.375 388.70182 405.46094 389.69141 C 406.00782 389.86067 406.3724 390.15365 406.55469 390.57031 C 406.80209 390.59638 407.16016 390.69403 407.62891 390.86328 C 408.03255 391.22787 408.52083 391.80078 409.09375 392.58203 C 409.77083 393.91016 410.10938 394.81511 410.10938 395.29688 C 410.10938 396.45574 409.88802 397.32813 409.44531 397.91406 C 406.78906 401.48177 401.45052 404.45703 393.42969 406.83984 C 393.37762 406.94401 393.25392 407.07422 393.05859 407.23047 C 392.35547 407.45182 390.35026 408.01823 387.04297 408.92969 C 386.09245 409.20312 385.51302 409.67187 385.30469 410.33594 C 385.30469 410.84375 385.29816 411.37761 385.28516 411.9375 C 385.23309 413.90365 385.01173 415.70703 384.62109 417.34766 C 384.52995 418.11588 384.36719 418.81901 384.13281 419.45703 L 383.46875 419.45703 C 383.16927 419.30078 382.82422 418.94922 382.43359 418.40234 C 382.04297 417.85547 381.8086 417.40625 381.73047 417.05469 L 381.71094 413.1875 C 381.55469 411.39063 381.125 410.20573 380.42188 409.63281 C 380.36981 409.60675 380.34375 409.29425 380.34375 408.69531 C 380.34375 408.08333 380.48698 407.7513 380.77344 407.69922 C 381.28125 407.60807 381.72396 407.21745 382.10156 406.52734 C 382.28386 405.64193 382.56381 404.33985 382.94141 402.62109 C 383.09766 402.36068 383.29948 401.94401 383.54688 401.37109 C 384.21093 398.29818 385.15495 396.03255 386.37891 394.57422 L 386.37891 394.51562 C 386.37891 394.32032 386.17708 394.22266 385.77344 394.22266 C 385.31771 394.3789 384.16537 394.91276 382.31641 395.82422 C 382.21224 395.87629 382.0625 396.05858 381.86719 396.37109 C 381.35937 396.60547 381.05339 396.72266 380.94922 396.72266 C 380.46745 396.72266 379.95312 396.07162 379.40625 394.76953 C 379.40625 394.6263 379.58854 394.2487 379.95312 393.63672 C 380.33073 393.02474 380.60417 392.66667 380.77344 392.5625 C 381.28125 392.32813 382.00391 391.95703 382.94141 391.44922 C 383.09766 391.42315 383.34505 391.37758 383.68359 391.3125 C 384.33463 390.81771 385.54557 390.35547 387.31641 389.92578 C 389.82943 389.3138 391.96484 388.89062 393.72266 388.65625 C 396.15756 388.35677 397.73958 388.20703 398.46875 388.20703 z M 210.05078 389.75 C 210.16797 389.78907 210.44141 389.92578 210.87109 390.16016 C 211.40495 391.30599 211.67187 392.19792 211.67188 392.83594 C 211.67188 393.46094 211.28776 394.32032 210.51953 395.41406 C 208.60546 398.16146 207.36849 402.23699 206.80859 407.64062 C 206.69141 408.63021 206.46354 410.58333 206.125 413.5 C 205.95573 415.0625 205.83203 416.57943 205.75391 418.05078 C 205.70184 418.05078 205.62371 418.10938 205.51953 418.22656 C 205.48046 418.69532 205.44794 419.15104 205.42188 419.59375 C 205.31771 420.0625 205.12891 420.44661 204.85547 420.74609 C 204.46485 420.87631 204.21745 420.94141 204.11328 420.94141 C 203.68359 420.94141 203.1237 420.45964 202.43359 419.49609 C 202.2513 419.23568 202.16016 418.82553 202.16016 418.26562 L 202.16016 417.89453 L 202.92188 406.07812 C 202.85674 406.05206 202.73304 406.03906 202.55078 406.03906 C 202.45963 406.03906 202.1211 406.16927 201.53516 406.42969 L 200.46094 406.91797 C 197.79167 407.58203 195.13542 407.91406 192.49219 407.91406 C 192.47919 407.91406 192.08205 407.888 191.30078 407.83594 C 190.53255 407.7708 190.11588 407.73828 190.05078 407.73828 C 189.98565 407.73828 189.24997 407.8099 187.84375 407.95312 L 185.65625 408.1875 L 184.85547 408.12891 C 184.3086 408.07684 184.0026 408.05078 183.9375 408.05078 C 182.73958 408.05078 182.08854 408.13541 181.98438 408.30469 C 181.35938 409.34635 181.04688 410.51823 181.04688 411.82031 C 181.04688 411.9375 181.05341 412.06119 181.06641 412.19141 C 181.07941 412.46484 181.08594 412.73177 181.08594 412.99219 C 181.08594 414.73697 180.79948 415.86328 180.22656 416.37109 C 178.44271 416.14974 177.55078 414.3724 177.55078 411.03906 C 177.55078 408.92969 177.6875 407.10677 177.96094 405.57031 C 178.13021 404.61979 178.48828 403.20052 179.03516 401.3125 C 179.47786 400.71354 180.0638 399.76953 180.79297 398.48047 C 181.22266 397.34766 181.54167 396.57943 181.75 396.17578 C 182.11458 395.39453 182.44661 394.88021 182.74609 394.63281 C 182.98047 394.86719 183.49479 394.98438 184.28906 394.98438 L 184.85547 398.08984 C 184.85547 398.14191 184.51692 398.89712 183.83984 400.35547 C 183.16276 401.8138 182.82422 402.55599 182.82422 402.58203 L 182.82422 403.63672 C 183.16277 403.75391 183.69661 403.84505 184.42578 403.91016 C 184.51693 403.92316 184.64063 403.92969 184.79688 403.92969 C 185.05729 403.92969 185.41537 403.91016 185.87109 403.87109 C 186.69141 403.81903 187.11458 403.79297 187.14062 403.79297 C 187.28385 403.79297 187.47265 403.83203 187.70703 403.91016 L 188.23438 404.08594 C 188.57291 404.09894 190.12239 404.10547 192.88281 404.10547 C 194.5625 403.9362 195.57162 403.85156 195.91016 403.85156 C 196.13151 403.85156 196.67838 403.85809 197.55078 403.87109 L 199.79688 403.91016 L 202.375 403.92969 C 203.26041 403.92969 203.80078 403.17448 203.99609 401.66406 C 204.04816 401.23438 204.11978 400.60286 204.21094 399.76953 C 204.35417 398.79297 204.60808 397.79037 204.97266 396.76172 C 205.61068 395.02995 206.47005 393.39584 207.55078 391.85938 C 207.79817 391.50781 208.22786 391.07161 208.83984 390.55078 C 209.46484 390.01693 209.86849 389.75 210.05078 389.75 z M 349.40625 390.76562 C 349.86198 390.76562 350.59114 391.22135 351.59375 392.13281 C 352.40104 392.88802 352.90885 393.43489 353.11719 393.77344 C 353.92448 395.1276 354.32812 396.50782 354.32812 397.91406 C 354.32812 399.34636 353.90495 400.53125 353.05859 401.46875 C 352.91537 401.63802 351.58073 402.73177 349.05469 404.75 C 348.39063 405.12761 347.52474 405.67448 346.45703 406.39062 C 346.07942 406.53386 345.70833 406.6836 345.34375 406.83984 C 344.64062 407.16536 344.28906 407.47786 344.28906 407.77734 C 344.28906 407.94662 344.63412 408.44141 345.32422 409.26172 C 346.01433 410.06901 346.43099 410.47266 346.57422 410.47266 C 348.47527 409.6914 350.9362 408.83203 353.95703 407.89453 C 354.25651 407.69922 354.40625 407.58203 354.40625 407.54297 C 354.82292 407.54297 355.25261 407.71224 355.69531 408.05078 C 356.15104 408.38932 356.37891 408.70833 356.37891 409.00781 C 356.30078 409.07295 356.0013 409.45706 355.48047 410.16016 C 352.91537 410.9414 350.9362 411.9375 349.54297 413.14844 L 349.54297 413.77344 C 349.92058 413.90364 350.20703 414.02734 350.40234 414.14453 C 350.83203 414.67838 351.47656 415.34245 352.33594 416.13672 C 352.54427 416.27995 352.80469 416.49479 353.11719 416.78125 C 353.44271 417.28906 353.60547 417.69271 353.60547 417.99219 C 353.60547 418.91667 353.19531 419.37891 352.375 419.37891 C 351.8151 419.37891 351.35937 419.24219 351.00781 418.96875 C 350.60417 418.63021 349.55599 417.69922 347.86328 416.17578 C 346.6263 415.04297 345.94271 414.47656 345.8125 414.47656 C 345.78643 414.47656 345.19399 414.73047 344.03516 415.23828 C 342.8763 415.74609 342.28385 416 342.25781 416 C 342.21875 416 342.15364 415.96748 342.0625 415.90234 C 341.98437 415.86328 341.93229 415.84375 341.90625 415.84375 C 341.88018 415.84375 341.50258 416.04557 340.77344 416.44922 C 340.05729 416.85287 339.64714 417.06771 339.54297 417.09375 C 337.55078 417.69271 336.05338 417.99219 335.05078 417.99219 C 332.53776 417.99219 331.28125 416.55339 331.28125 413.67578 C 331.28125 413.01172 331.30078 412.62109 331.33984 412.50391 C 331.39191 412.39974 331.77603 411.89193 332.49219 410.98047 C 332.89583 410.45964 333.47526 409.9974 334.23047 409.59375 C 334.97266 409.17708 335.59115 408.81901 336.08594 408.51953 L 340.01172 406.17578 C 340.14193 406.11065 340.20703 405.94789 340.20703 405.6875 C 340.20703 405.6745 340.10286 404.9193 339.89453 403.42188 L 339.60156 401.17578 C 339.60156 400.34245 340.16146 399.15755 341.28125 397.62109 C 342.62239 395.77214 343.44271 394.3073 343.74219 393.22656 C 345.44792 391.58594 347.33594 390.76563 349.40625 390.76562 z M 399.95312 391.66406 C 398.75521 391.66406 397.04948 391.79427 394.83594 392.05469 C 394.11979 392.25 393.20182 392.47136 392.08203 392.71875 C 390.98828 392.75782 389.13281 393.22657 386.51562 394.125 C 387.98698 394.65885 388.72266 395.34245 388.72266 396.17578 C 388.72266 396.67057 388.12369 398.5 386.92578 401.66406 C 386.86065 402.41927 386.67836 403.55859 386.37891 405.08203 L 387.51172 405.08203 C 387.87631 405.08203 391.0664 403.96224 397.08203 401.72266 L 397.86328 401.27344 C 398.94401 400.70052 401.53516 399.16406 405.63672 396.66406 C 406.17058 395.63542 406.4375 395.07552 406.4375 394.98438 C 406.4375 394.11198 405.4935 393.3112 403.60547 392.58203 C 402.02995 391.97005 400.8125 391.66406 399.95312 391.66406 z M 349.15234 394.18359 C 348.55338 394.18359 347.58333 394.72395 346.24219 395.80469 C 345.08333 396.71614 344.39974 397.36067 344.19141 397.73828 C 343.83985 398.35026 343.45573 399.28776 343.03906 400.55078 C 342.67448 401.63151 342.49219 402.26302 342.49219 402.44531 C 342.49219 403.55209 342.72005 404.15755 343.17578 404.26172 C 343.89193 403.91015 344.88802 403.30469 346.16406 402.44531 C 348.13021 401.11719 349.64714 399.74349 350.71484 398.32422 C 351.10547 397.80339 351.30078 397.49089 351.30078 397.38672 C 351.30078 396.93099 351.125 396.34505 350.77344 395.62891 C 350.31771 394.66536 349.77734 394.18359 349.15234 394.18359 z M 562.92188 396.35156 C 563.32552 397.19792 563.52734 398.0052 563.52734 398.77344 C 563.52734 399.09896 563.14323 399.69792 562.375 400.57031 C 561.08593 400.20573 560.44141 399.66537 560.44141 398.94922 C 560.44141 398.25911 560.70182 397.46484 561.22266 396.56641 C 561.4961 396.54034 562.0625 396.46873 562.92188 396.35156 z M 510.53906 402.97266 C 511.21614 402.97266 511.55469 403.79297 511.55469 405.43359 C 511.55469 406.30599 511.46354 406.97005 511.28125 407.42578 C 510.91666 408.36328 510.5 409.43099 510.03125 410.62891 C 509.90104 410.66797 509.75781 410.78516 509.60156 410.98047 C 509.51042 411.4362 509.17839 411.97656 508.60547 412.60156 L 507.23828 414.125 C 507.19921 414.24219 507.15364 414.40495 507.10156 414.61328 C 505.7474 415.96745 503.92448 417.21094 501.63281 418.34375 C 499.43229 419.00781 497.83724 419.33984 496.84766 419.33984 C 496.22266 419.33984 495.31119 419.15755 494.11328 418.79297 C 489.58203 417.42578 487.31641 414.23568 487.31641 409.22266 C 487.31641 407.5039 487.86979 405.94791 488.97656 404.55469 L 489.99219 404.55469 C 490.8125 405.15364 491.22266 406.08463 491.22266 407.34766 C 491.22266 407.41272 491.1966 407.84892 491.14453 408.65625 C 491.10546 409.46354 491.08594 409.91276 491.08594 410.00391 C 491.08594 412.25651 492.29687 413.71484 494.71875 414.37891 C 495.57812 414.61328 496.00781 414.74349 496.00781 414.76953 C 496.00781 414.78253 495.99482 414.78906 495.96875 414.78906 C 495.99482 414.78906 496.21617 414.76954 496.63281 414.73047 C 497.0625 414.6784 497.30989 414.65234 497.375 414.65234 C 498.66406 414.65234 500.42839 413.91667 502.66797 412.44531 C 503.9961 411.5599 505.31771 410.26433 506.63281 408.55859 C 507.96094 406.86589 508.70964 405.4987 508.87891 404.45703 C 508.91797 404.26172 509.15886 403.96875 509.60156 403.57812 C 510.05729 403.17449 510.36979 402.97266 510.53906 402.97266 z M 447.39453 403.5 C 451.26172 403.5 453.76172 405.14713 454.89453 408.44141 C 455.45442 410.04297 455.73438 410.94141 455.73438 411.13672 C 455.73438 412.71224 455.35026 413.97526 454.58203 414.92578 C 453.78776 415.8763 452.27734 416.91797 450.05078 418.05078 C 448.47526 418.84505 446.71094 419.47005 444.75781 419.92578 C 444.26302 420.04297 443.69661 420.17968 443.05859 420.33594 C 441.43099 420.33594 439.59505 419.78907 437.55078 418.69531 C 435.25911 417.48438 433.95052 416.07813 433.625 414.47656 C 433.57293 414.32032 433.46226 413.99479 433.29297 413.5 C 433.07162 412.90104 432.96094 412.5625 432.96094 412.48438 C 432.96094 412.23698 433.11068 411.625 433.41016 410.64844 C 433.70964 409.67187 433.95703 409.02734 434.15234 408.71484 C 434.39974 408.27214 435.0052 407.82943 435.96875 407.38672 L 437.88281 406.48828 C 439.23698 405.70703 440.83204 404.94532 442.66797 404.20312 L 444.15234 404.10547 L 444.89453 403.73438 C 444.97265 403.73438 445.39583 403.69531 446.16406 403.61719 C 446.93229 403.53906 447.34244 403.5 447.39453 403.5 z M 420.73438 404.39844 C 421.20313 404.39844 424.66667 404.94532 431.125 406.03906 C 431.16407 406.1042 431.27474 406.22138 431.45703 406.39062 L 433.48828 406.625 C 433.48828 407.49739 433.5599 407.98568 433.70312 408.08984 C 433.66406 408.11591 433.07812 408.45445 431.94531 409.10547 L 431.59375 408.77344 C 431.33333 408.99479 431.09245 409.10547 430.87109 409.10547 C 430.74089 409.10547 429.25 408.97526 426.39844 408.71484 L 421.92578 408.30469 C 418.03255 408.30469 415.29818 409.56771 413.72266 412.09375 C 413.33203 412.71875 412.97396 413.8125 412.64844 415.375 C 412.55729 415.45313 412.40755 415.60287 412.19922 415.82422 C 412.19922 416.69661 412.03646 417.86198 411.71094 419.32031 C 411.13802 419.54167 410.53906 419.65234 409.91406 419.65234 C 408.49479 419.65234 407.78516 418.76693 407.78516 416.99609 C 407.82422 416.72266 407.92188 415.80469 408.07812 414.24219 C 408.26042 412.41927 408.39062 411.04557 408.46875 410.12109 C 409.18489 408.50651 409.83593 407.69922 410.42188 407.69922 L 410.92969 407.91406 C 411.28125 408.0573 411.5026 408.12891 411.59375 408.12891 C 411.63282 408.12891 412.14063 407.7448 413.11719 406.97656 C 414.14583 406.41667 415.27864 405.84375 416.51562 405.25781 C 417.71355 404.6849 419.11979 404.39844 420.73438 404.39844 z M 247.55078 404.78906 C 250.01171 404.78906 252.17969 405.33593 254.05469 406.42969 C 254.5625 406.72917 255.41536 407.64063 256.61328 409.16406 C 257.52473 410.29688 257.98047 411.59896 257.98047 413.07031 C 257.98047 414.48959 256.9388 416.03255 254.85547 417.69922 C 253.04558 419.17057 251.32683 420.13412 249.69922 420.58984 C 249.25651 420.98047 248.87891 421.17578 248.56641 421.17578 L 248.41016 421.07812 C 248.31901 421.02606 248.22787 421 248.13672 421 C 248.08465 421 247.24481 421.1823 245.61719 421.54688 C 244.00261 421.91146 243.17579 422.09375 243.13672 422.09375 C 243.09765 422.09375 242.8763 422.11981 242.47266 422.17188 C 242.06901 422.22394 241.84765 422.25 241.80859 422.25 C 241.30078 422.25 240.64323 421.89193 239.83594 421.17578 C 239.78387 421.21485 239.69923 421.30599 239.58203 421.44922 C 239.56903 421.64453 239.26955 423.78646 238.68359 427.875 C 238.61846 428.27865 238.48826 429.75651 238.29297 432.30859 C 238.1237 434.52214 237.78516 436.0586 237.27734 436.91797 C 237.23828 436.90497 237.20575 436.89197 237.17969 436.87891 C 237.04948 436.87891 236.89323 436.90496 236.71094 436.95703 C 236.39844 437.02216 236.22265 437.05469 236.18359 437.05469 C 235.41537 437.05469 234.65365 436.50782 233.89844 435.41406 L 233.89844 431.66406 C 233.89844 431.58594 233.98958 431.41666 234.17188 431.15625 C 234.15887 430.83073 234.15234 430.46615 234.15234 430.0625 C 234.15234 428.82552 234.20443 427.24349 234.30859 425.31641 C 234.46484 424.95182 234.66666 424.36589 234.91406 423.55859 C 235.08333 421.48828 235.55208 418.35026 236.32031 414.14453 C 237.12761 413.18099 237.71354 412.69922 238.07812 412.69922 C 238.69011 412.69922 239.24349 412.9987 239.73828 413.59766 C 240.22005 414.22266 240.46094 414.88672 240.46094 415.58984 C 240.46094 416.52734 240.21354 417.93359 239.71875 419.80859 C 239.92708 419.97787 240.07683 420.0625 240.16797 420.0625 C 240.76693 420.0625 242.82422 419.29427 246.33984 417.75781 C 248.00651 417.04167 249.58854 416.27994 251.08594 415.47266 C 252.07552 414.74349 253.01302 413.8711 253.89844 412.85547 C 254.06771 412.64714 254.15234 412.35417 254.15234 411.97656 C 254.15234 411.8073 253.90495 411.42318 253.41016 410.82422 C 252.92839 410.21224 252.52475 409.79557 252.19922 409.57422 C 251.27475 408.92318 250.08984 408.59766 248.64453 408.59766 C 246.53515 408.59766 244.34765 408.94922 242.08203 409.65234 C 239.62109 410.42058 238.1888 410.90234 237.78516 411.09766 C 236.39193 411.7487 235.69531 412.58854 235.69531 413.61719 C 235.69531 413.69531 235.72137 413.77344 235.77344 413.85156 C 235.5651 414.22917 235.33724 414.75651 235.08984 415.43359 C 234.9987 415.49873 234.6276 415.68753 233.97656 416 C 232.83073 415.17969 232.25781 414.30729 232.25781 413.38281 L 232.72656 412.73828 C 232.6745 412.58203 232.64844 412.38672 232.64844 412.15234 C 232.64844 412.04818 232.65497 411.92448 232.66797 411.78125 C 233.3711 410.28386 235.05729 408.81901 237.72656 407.38672 C 240.40886 405.96745 242.79818 405.24479 244.89453 405.21875 C 244.9466 405.17968 245.0703 405.11458 245.26562 405.02344 C 245.69531 404.86718 246.45703 404.78906 247.55078 404.78906 z M 275.44141 404.78906 C 277.90235 404.78906 280.07031 405.33593 281.94531 406.42969 C 282.45313 406.72917 283.30599 407.64063 284.50391 409.16406 C 285.41537 410.29688 285.87109 411.59896 285.87109 413.07031 C 285.87109 414.48959 284.82943 416.03255 282.74609 417.69922 C 280.9362 419.17057 279.21745 420.13412 277.58984 420.58984 C 277.14714 420.98047 276.76953 421.17578 276.45703 421.17578 L 276.30078 421.07812 C 276.20963 421.02606 276.11849 421 276.02734 421 C 275.97528 421 275.13543 421.1823 273.50781 421.54688 C 271.89323 421.91146 271.0664 422.09375 271.02734 422.09375 C 270.98828 422.09375 270.76692 422.11981 270.36328 422.17188 C 269.95963 422.22394 269.73829 422.25 269.69922 422.25 C 269.19141 422.25 268.53386 421.89193 267.72656 421.17578 C 267.6745 421.21485 267.58986 421.30599 267.47266 421.44922 C 267.45966 421.64453 267.16018 423.78646 266.57422 427.875 C 266.50909 428.27865 266.37887 429.75651 266.18359 432.30859 C 266.01432 434.52214 265.67578 436.0586 265.16797 436.91797 C 265.1289 436.90497 265.09638 436.89197 265.07031 436.87891 C 264.94011 436.87891 264.78386 436.90496 264.60156 436.95703 C 264.28906 437.02216 264.11329 437.05469 264.07422 437.05469 C 263.30599 437.05469 262.54427 436.50782 261.78906 435.41406 L 261.78906 431.66406 C 261.78906 431.58594 261.88021 431.41666 262.0625 431.15625 C 262.0495 430.83073 262.04297 430.46615 262.04297 430.0625 C 262.04297 428.82552 262.09505 427.24349 262.19922 425.31641 C 262.35547 424.95182 262.55729 424.36589 262.80469 423.55859 C 262.97396 421.48828 263.44271 418.35026 264.21094 414.14453 C 265.01823 413.18099 265.60416 412.69922 265.96875 412.69922 C 266.58072 412.69922 267.13411 412.9987 267.62891 413.59766 C 268.11068 414.22266 268.35156 414.88672 268.35156 415.58984 C 268.35156 416.52734 268.10417 417.93359 267.60938 419.80859 C 267.81771 419.97787 267.96745 420.0625 268.05859 420.0625 C 268.65755 420.0625 270.71485 419.29427 274.23047 417.75781 C 275.89714 417.04167 277.47916 416.27994 278.97656 415.47266 C 279.96614 414.74349 280.90364 413.8711 281.78906 412.85547 C 281.95833 412.64714 282.04297 412.35417 282.04297 411.97656 C 282.04297 411.8073 281.79557 411.42318 281.30078 410.82422 C 280.81901 410.21224 280.41536 409.79557 280.08984 409.57422 C 279.16536 408.92318 277.98047 408.59766 276.53516 408.59766 C 274.42578 408.59766 272.23828 408.94922 269.97266 409.65234 C 267.51172 410.42058 266.07943 410.90234 265.67578 411.09766 C 264.28255 411.7487 263.58594 412.58854 263.58594 413.61719 C 263.58594 413.69531 263.612 413.77344 263.66406 413.85156 C 263.45573 414.22917 263.22787 414.75651 262.98047 415.43359 C 262.88933 415.49873 262.51823 415.68753 261.86719 416 C 260.72135 415.17969 260.14844 414.30729 260.14844 413.38281 L 260.61719 412.73828 C 260.56512 412.58203 260.53906 412.38672 260.53906 412.15234 C 260.53906 412.04818 260.54559 411.92448 260.55859 411.78125 C 261.26172 410.28386 262.94792 408.81901 265.61719 407.38672 C 268.29948 405.96745 270.6888 405.24479 272.78516 405.21875 C 272.83722 405.17968 272.96092 405.11458 273.15625 405.02344 C 273.58594 404.86718 274.34766 404.78906 275.44141 404.78906 z M 601.53516 405.04297 C 603.46224 405.04297 604.90755 405.48568 605.87109 406.37109 C 606.6263 407.04818 607.36849 407.88803 608.09766 408.89062 C 608.1888 409.19011 608.23438 409.6263 608.23438 410.19922 C 608.23438 410.52474 608.22138 410.90234 608.19531 411.33203 C 608.09115 412.60807 607.8112 413.36328 607.35547 413.59766 C 606.65235 413.59766 605.1224 413.75391 602.76562 414.06641 L 599.25 414.53516 L 599.26953 414.53516 C 599.26953 414.56122 598.65755 414.70446 597.43359 414.96484 C 597.29037 414.84766 596.9323 414.78906 596.35938 414.78906 L 596.06641 415.08203 C 596.06641 415.44662 597.4401 416.01302 600.1875 416.78125 C 600.94271 416.82032 601.80209 416.89193 602.76562 416.99609 C 604.38021 417.19141 605.1875 417.59505 605.1875 418.20703 C 605.1875 418.3763 604.6862 418.71484 603.68359 419.22266 C 603.64453 419.26172 603.3776 419.52214 602.88281 420.00391 C 601.96747 420.09415 601.51881 420.15131 601.50977 420.17773 C 601.51079 420.17775 601.53433 420.17969 601.53516 420.17969 L 601.49609 420.17969 C 601.49609 420.17943 601.50968 420.178 601.50977 420.17773 C 601.43045 420.17659 600.78992 420.13295 599.54297 420.04297 L 597.49219 419.88672 C 597.0625 419.88672 596.35937 419.65886 595.38281 419.20312 C 595.17448 419.09896 594.60807 418.80599 593.68359 418.32422 C 592.57682 417.93359 591.5677 417.20443 590.65625 416.13672 C 589.75781 415.05599 589.30859 414.07291 589.30859 413.1875 C 589.30859 412.09375 589.44531 411.28646 589.71875 410.76562 C 591.65885 406.95052 595.59766 405.04297 601.53516 405.04297 z M 567.78516 405.51172 C 567.92839 405.51172 568.8724 406.82031 570.61719 409.4375 C 572.375 412.06771 573.35156 413.38281 573.54688 413.38281 C 573.72917 413.38281 574.34115 413.07682 575.38281 412.46484 C 576.4375 411.83984 577.11458 411.39062 577.41406 411.11719 C 578.26042 410.67447 579.40625 410.0039 580.85156 409.10547 C 581.16406 408.79297 581.71745 408.35026 582.51172 407.77734 C 583.7487 407.25651 585.35026 406.70963 587.31641 406.13672 C 587.86328 406.54037 588.13672 406.96354 588.13672 407.40625 C 588.13672 407.73177 587.98047 408.07682 587.66797 408.44141 C 587.34245 408.70182 586.28776 409.50911 584.50391 410.86328 C 584.49091 411.01953 584.46485 411.22136 584.42578 411.46875 C 577.66797 416.52083 574.0612 419.04688 573.60547 419.04688 C 573.39714 419.04688 572.91536 418.79947 572.16016 418.30469 C 571.39193 417.79687 570.94271 417.44531 570.8125 417.25 C 569.01562 414.17708 567.64844 411.44921 566.71094 409.06641 C 566.63282 408.96224 566.50912 408.80599 566.33984 408.59766 C 566.14453 408.33724 566.04688 408.10286 566.04688 407.89453 C 566.65885 406.30599 567.23828 405.51172 567.78516 405.51172 z M 525.48047 405.78516 C 525.51954 405.78516 525.78646 405.81775 526.28125 405.88281 C 526.78906 405.93488 527.06901 405.96094 527.12109 405.96094 C 528.31901 405.96094 529.11979 406.11068 529.52344 406.41016 C 529.9242 406.69456 530.12409 407.28224 530.12695 408.16992 C 530.12695 408.16992 530.12891 408.16797 530.12891 408.16797 L 530.12891 408.1875 C 530.12891 408.18108 530.12697 408.17631 530.12695 408.16992 C 530.10024 408.17148 529.90026 408.56016 529.52344 409.33984 C 529.28906 409.4961 528.9375 409.57422 528.46875 409.57422 C 528.40362 409.57422 528.22133 409.54816 527.92188 409.49609 C 527.59636 409.44403 527.41406 409.41797 527.375 409.41797 C 525.73437 409.41797 523.16276 410.38151 519.66016 412.30859 C 518.80078 412.79037 518.20833 413.63672 517.88281 414.84766 C 519.44177 415.9649 521.08505 416.52481 522.8125 416.52734 C 522.81767 416.5141 523.6432 416.45543 525.30469 416.35156 L 527.76562 416.19531 C 527.80469 416.19531 528.44271 416.09766 529.67969 415.90234 C 530.92969 415.73308 531.57421 415.64844 531.61328 415.64844 C 532.10807 415.64844 532.51172 415.76563 532.82422 416 C 532.85029 416.19531 532.86328 416.39062 532.86328 416.58594 C 532.86328 417.74479 532.20573 418.32422 530.89062 418.32422 C 530.85156 418.32422 530.74739 418.29816 530.57812 418.24609 C 530.42188 418.19403 530.32422 418.16797 530.28516 418.16797 C 530.19401 418.16797 529.80989 418.33073 529.13281 418.65625 C 528.36458 419.00781 527.90885 419.19661 527.76562 419.22266 C 525.60416 419.70442 524.04818 419.94531 523.09766 419.94531 C 523.01953 419.94531 522.81771 419.91925 522.49219 419.86719 C 522.375 419.85419 522.2513 419.84766 522.12109 419.84766 C 521.97787 419.84766 521.82813 419.85419 521.67188 419.86719 C 521.33333 420.03645 521.01432 420.12109 520.71484 420.12109 C 519.34766 420.12109 518.01302 419.73047 516.71094 418.94922 C 515.38282 418.14193 514.52995 417.20443 514.15234 416.13672 C 513.86588 415.27735 513.71614 414.84766 513.70312 414.84766 C 513.70312 413.85807 513.90495 413.01172 514.30859 412.30859 C 514.93359 411.24089 516.03385 410.09505 517.60938 408.87109 C 518.36458 408.29818 519.32162 407.75781 520.48047 407.25 C 522.77214 406.27344 524.4388 405.78516 525.48047 405.78516 z M 288.83984 406.3125 C 289.94662 406.3125 290.66927 407.30208 291.00781 409.28125 C 291.08594 409.72396 291.20313 410.73307 291.35938 412.30859 C 292.07552 413.55859 293.05859 414.18359 294.30859 414.18359 C 294.51693 414.14453 295.03776 414.01432 295.87109 413.79297 C 296.96484 413.49349 297.66146 413.31771 297.96094 413.26562 C 299.43229 413.00521 300.88411 412.41276 302.31641 411.48828 C 302.95443 411.08463 304.16537 410.3099 305.94922 409.16406 C 306.14453 408.89063 306.45052 408.51953 306.86719 408.05078 L 308.82031 408.05078 C 309.45833 408.96224 309.77734 409.84766 309.77734 410.70703 C 309.77734 410.92838 309.48438 411.64453 308.89844 412.85547 C 308.32552 414.0664 307.85026 414.94531 307.47266 415.49219 C 307.19922 415.6875 306.88672 415.97396 306.53516 416.35156 C 306.32682 416.8724 305.77994 418.00521 304.89453 419.75 L 304.81641 419.98438 L 304.81641 420.04297 C 304.76434 420.05597 304.62762 420.27081 304.40625 420.6875 C 304.18489 420.83073 303.91146 421.10417 303.58594 421.50781 C 303.50782 421.70313 303.40365 422.22396 303.27344 423.07031 C 302.9349 423.07031 302.68099 423.28516 302.51172 423.71484 C 302.35547 424.14453 302.04297 424.97135 301.57422 426.19531 C 301.36589 426.74219 300.91015 427.55599 300.20703 428.63672 C 300.2461 428.85807 300.26562 429.17057 300.26562 429.57422 C 300.07031 429.83463 299.80338 430.25781 299.46484 430.84375 C 299.46484 430.96094 299.19792 432.08724 298.66406 434.22266 C 298.44271 434.76953 298.1237 435.57031 297.70703 436.625 C 297.68096 436.76823 297.4531 437.60807 297.02344 439.14453 C 296.89323 439.60026 296.47005 439.82813 295.75391 439.82812 C 295.06381 439.82812 294.47136 439.57421 293.97656 439.06641 C 293.49479 438.55859 293.25391 437.94662 293.25391 437.23047 C 293.25391 436.73568 293.59244 435.5638 294.26953 433.71484 C 294.36068 433.46745 294.58203 432.76432 294.93359 431.60547 C 295.08984 431.44922 295.29166 431.18229 295.53906 430.80469 C 295.73438 429.90625 297.47917 425.50521 300.77344 417.60156 L 300.5 417.34766 C 298.55989 418.16796 297.01693 418.57813 295.87109 418.57812 C 295.83203 418.57812 295.51302 418.5 294.91406 418.34375 C 294.30208 418.17448 293.97656 418.08984 293.9375 418.08984 C 293.91143 418.08984 293.81378 418.12237 293.64453 418.1875 C 293.47526 418.23957 293.36458 418.26562 293.3125 418.26562 C 292.73958 418.26562 291.92578 417.95963 290.87109 417.34766 C 290.01172 416.82682 289.45183 416.42318 289.19141 416.13672 C 288.57943 415.47265 288.16927 414.6263 287.96094 413.59766 C 288.013 413.53252 288.03906 413.46091 288.03906 413.38281 C 288.013 413.30469 287.98694 413.23958 287.96094 413.1875 C 287.51823 412.65365 287.29688 411.72266 287.29688 410.39453 C 287.29688 409.02734 287.38151 408.14844 287.55078 407.75781 C 288.01953 406.79427 288.44922 406.3125 288.83984 406.3125 z M 561.00781 406.33203 C 561.58073 406.33203 562.0039 406.76823 562.27734 407.64062 C 562.31641 407.79688 562.40104 410.93489 562.53125 417.05469 L 562.53125 417.09375 C 562.53125 417.32812 562.38802 418.03125 562.10156 419.20312 L 561.59375 419.32031 C 561.58075 419.33331 561.55469 419.33984 561.51562 419.33984 C 561.25521 419.33984 560.68881 419.17708 559.81641 418.85156 C 559.82941 418.8125 559.83594 418.76692 559.83594 418.71484 C 559.83594 418.44141 559.6927 418.08334 559.40625 417.64062 C 558.96354 416.97657 558.71614 416.54688 558.66406 416.35156 C 558.65106 416.3125 558.64453 416.22786 558.64453 416.09766 C 558.64453 415.69401 558.69661 414.88672 558.80078 413.67578 C 559.00911 411.21484 559.3086 409.0013 559.69922 407.03516 C 560.05079 406.5664 560.48698 406.33203 561.00781 406.33203 z M 448.09766 407.44531 C 446.32682 407.44531 444.27604 407.82942 441.94531 408.59766 C 441.75 408.7539 441.5026 408.94271 441.20312 409.16406 C 440.64323 409.20313 440.16146 409.33985 439.75781 409.57422 C 438.01302 411.27995 437.14063 412.3737 437.14062 412.85547 C 437.14062 413.63672 437.83724 414.39844 439.23047 415.14062 C 440.45443 415.79167 441.46354 416.11719 442.25781 416.11719 C 443.59896 416.11719 445.4349 415.53776 447.76562 414.37891 C 450.42188 413.05078 451.75 411.70964 451.75 410.35547 C 451.75 408.41536 450.53256 407.44531 448.09766 407.44531 z M 220.65625 407.95312 C 221.32031 407.95312 222.1862 408.14844 223.25391 408.53906 C 223.56641 408.65625 223.95052 409.10547 224.40625 409.88672 C 224.875 410.66797 225.10938 411.24739 225.10938 411.625 C 225.10938 412.27604 224.72526 412.84245 223.95703 413.32422 C 222.35546 412.42578 221.10546 411.97656 220.20703 411.97656 C 219.24348 411.97656 218.2539 412.21745 217.23828 412.69922 C 215.96223 413.29818 214.9401 413.95574 214.17188 414.67188 C 214.26302 415.0625 214.72526 415.25781 215.55859 415.25781 C 215.49346 415.25781 215.46094 415.25128 215.46094 415.23828 C 215.46094 415.14713 216.32682 414.83463 218.05859 414.30078 C 220.11589 413.64974 221.64584 413.32422 222.64844 413.32422 C 222.92188 413.32422 223.89193 414.02084 225.55859 415.41406 C 227.35547 416.92448 228.63802 417.87501 229.40625 418.26562 C 229.71875 418.53907 229.875 418.74089 229.875 418.87109 C 229.875 419.33985 229.73177 419.76953 229.44531 420.16016 C 229.17187 420.55078 228.85937 420.74609 228.50781 420.74609 C 228 420.65495 226.53515 419.96484 224.11328 418.67578 C 222.72005 417.94661 221.95833 417.55599 221.82812 417.50391 C 221.28125 417.50391 220.51302 417.72526 219.52344 418.16797 C 218.20834 418.7539 217.44661 419.08594 217.23828 419.16406 C 216.36588 419.45052 215.5 419.59375 214.64062 419.59375 C 213.54688 419.59375 212.20573 418.86458 210.61719 417.40625 C 210.07031 416.625 209.79688 415.92838 209.79688 415.31641 C 209.79688 414.49609 210.0638 413.40234 210.59766 412.03516 C 210.71484 411.70963 211.09245 411.39713 211.73047 411.09766 L 212.94141 410.53125 C 215.75391 408.8125 218.32552 407.95312 220.65625 407.95312 z M 602.58984 408.28516 C 601.10547 408.41536 599.50391 408.63021 597.78516 408.92969 C 597.35547 408.99475 596.80208 409.25517 596.125 409.71094 C 595.46093 410.16666 595.12891 410.51823 595.12891 410.76562 C 595.12891 411 595.20052 411.11719 595.34375 411.11719 L 601.53516 411.11719 C 602.98047 411.11719 603.83333 410.90234 604.09375 410.47266 C 603.89844 409.86068 603.75521 409.36589 603.66406 408.98828 C 603.625 408.85807 603.26692 408.6237 602.58984 408.28516 z M 341.41797 409.41797 C 341.30078 409.47004 340.96224 409.67837 340.40234 410.04297 C 339.54297 410.4336 338.51433 410.88282 337.31641 411.39062 C 337.06901 411.50782 336.61979 411.89193 335.96875 412.54297 C 335.27864 413.23307 334.93359 413.6888 334.93359 413.91016 L 334.93359 414.47656 C 335.01172 414.47656 335.2461 414.50262 335.63672 414.55469 C 336.02735 414.59375 336.24218 414.61328 336.28125 414.61328 C 337.0625 414.61328 338.22135 414.33333 339.75781 413.77344 C 341.29427 413.21354 342.51172 412.63411 343.41016 412.03516 C 343.27995 411.60546 342.97396 411.0651 342.49219 410.41406 C 342.01042 409.75 341.65235 409.41797 341.41797 409.41797 z M 324.05469 431.80273 L 327.5957 431.80273 L 327.5957 439.82227 L 327.63477 439.82227 C 328.43477 439.02227 329.45617 438.44141 330.57617 438.44141 C 332.45617 438.44141 335.07617 439.38219 335.07617 442.24219 L 335.07617 449.00195 L 331.53516 449.00195 L 331.53516 443.20117 C 331.53516 442.18117 330.83531 441.20117 329.69531 441.20117 C 328.63531 441.20117 327.5957 442.18117 327.5957 443.20117 L 327.5957 449.00195 L 324.05469 449.00195 L 324.05469 431.80273 z M 434.35352 431.80273 L 437.89258 431.80273 L 437.89258 449.00195 L 434.39258 449.00195 L 434.39258 447.8418 L 434.35352 447.8418 C 433.59352 448.6818 432.39414 449.30273 430.99414 449.30273 C 427.99414 449.30273 425.89258 446.88281 425.89258 443.88281 C 425.89258 440.88281 427.99414 438.44141 430.99414 438.44141 C 432.37414 438.44141 433.51352 438.90266 434.35352 439.72266 L 434.35352 431.80273 z M 493.57227 431.80273 L 497.11133 431.80273 L 497.11133 449.00195 L 493.61133 449.00195 L 493.61133 447.8418 L 493.57227 447.8418 C 492.81227 448.6818 491.61289 449.30273 490.21289 449.30273 C 487.21289 449.30273 485.11133 446.88281 485.11133 443.88281 C 485.11133 440.88281 487.21289 438.44141 490.21289 438.44141 C 491.59289 438.44141 492.73227 438.90266 493.57227 439.72266 L 493.57227 431.80273 z M 532.04688 432.40234 C 533.20687 432.40234 534.14648 433.34195 534.14648 434.50195 C 534.14648 435.66195 533.20687 436.60156 532.04688 436.60156 C 530.88688 436.60156 529.94727 435.66195 529.94727 434.50195 C 529.94727 433.34195 530.88688 432.40234 532.04688 432.40234 z M 522.93555 434.92188 L 526.47656 434.92188 L 526.47656 438.74219 L 528.63672 438.74219 L 528.63672 441.44141 L 526.47656 441.44141 L 526.47656 444.70117 C 526.47656 445.66117 526.71734 446.12109 527.27734 446.12109 C 527.73734 446.12109 528.15625 445.80273 528.15625 445.80273 L 529.03711 448.66211 C 529.03711 448.66211 527.89555 449.30273 526.43555 449.30273 C 523.61555 449.30273 522.93555 447.20281 522.93555 445.38281 L 522.93555 441.44141 L 521.45703 441.44141 L 521.45703 438.74219 L 522.93555 438.74219 L 522.93555 434.92188 z M 341.61914 438.44141 C 342.99914 438.44141 344.13852 438.90266 344.97852 439.72266 L 344.97852 438.74219 L 348.51758 438.74219 L 348.51758 449.00195 L 345.01758 449.00195 L 345.01758 447.8418 L 344.97852 447.8418 C 344.21852 448.6818 343.01914 449.30273 341.61914 449.30273 C 338.61914 449.30273 336.51758 446.88281 336.51758 443.88281 C 336.51758 440.88281 338.61914 438.44141 341.61914 438.44141 z M 357.83008 438.44141 C 360.83008 438.44141 362.92969 440.86133 362.92969 443.86133 C 362.92969 446.86133 360.83008 449.30273 357.83008 449.30273 C 356.45008 449.30273 355.3107 448.84148 354.4707 448.02148 L 354.4707 454.20117 L 350.92969 454.20117 L 350.92969 438.74219 L 354.42969 438.74219 L 354.42969 439.90234 L 354.4707 439.90234 C 355.2307 439.06234 356.43008 438.44141 357.83008 438.44141 z M 371.50195 438.44141 C 374.50195 438.44141 376.60156 440.86133 376.60156 443.86133 C 376.60156 446.86133 374.50195 449.30273 371.50195 449.30273 C 370.12195 449.30273 368.98258 448.84148 368.14258 448.02148 L 368.14258 454.20117 L 364.60156 454.20117 L 364.60156 438.74219 L 368.10156 438.74219 L 368.10156 439.90234 L 368.14258 439.90234 C 368.90258 439.06234 370.10195 438.44141 371.50195 438.44141 z M 404.11914 438.44141 C 405.49914 438.44141 406.63852 438.90266 407.47852 439.72266 L 407.47852 438.74219 L 411.01758 438.74219 L 411.01758 449.00195 L 407.51758 449.00195 L 407.51758 447.8418 L 407.47852 447.8418 C 406.71852 448.6818 405.51914 449.30273 404.11914 449.30273 C 401.11914 449.30273 399.01758 446.88281 399.01758 443.88281 C 399.01758 440.88281 401.11914 438.44141 404.11914 438.44141 z M 419.95117 438.44141 C 421.83117 438.44141 424.45117 439.38219 424.45117 442.24219 L 424.45117 449.00195 L 420.91016 449.00195 L 420.91016 443.20117 C 420.91016 442.18117 420.21031 441.20117 419.07031 441.20117 C 418.01031 441.20117 416.9707 442.18117 416.9707 443.20117 L 416.9707 449.00195 L 413.42969 449.00195 L 413.42969 438.74219 L 416.9707 438.74219 L 416.9707 439.82227 L 417.00977 439.82227 C 417.80977 439.02227 418.83117 438.44141 419.95117 438.44141 z M 456.0332 438.44141 C 459.0332 438.44141 461.13281 440.86133 461.13281 443.86133 C 461.13281 446.86133 459.0332 449.30273 456.0332 449.30273 C 454.6532 449.30273 453.51383 448.84148 452.67383 448.02148 L 452.67383 454.20117 L 449.13281 454.20117 L 449.13281 438.74219 L 452.63281 438.74219 L 452.63281 439.90234 L 452.67383 439.90234 C 453.43383 439.06234 454.6332 438.44141 456.0332 438.44141 z M 469.52539 438.44141 C 470.84539 438.44141 471.76562 439.08203 471.76562 439.08203 L 470.28516 442.08203 C 470.28516 442.08203 469.62531 441.52148 468.44531 441.52148 C 466.60531 441.52148 466.3457 443.34156 466.3457 443.60156 L 466.3457 449.00195 L 462.80469 449.00195 L 462.80469 438.74219 L 466.3457 438.74219 L 466.3457 440.22266 L 466.38477 440.22266 C 466.38477 440.22266 467.50539 438.44141 469.52539 438.44141 z M 478.08984 438.44141 C 481.48984 438.44141 484.20898 440.68281 484.20898 443.88281 C 484.20898 447.04281 481.62984 449.30273 478.08984 449.30273 C 474.38984 449.30273 471.9082 447.04281 471.9082 443.88281 C 471.9082 440.68281 474.62984 438.44141 478.08984 438.44141 z M 517.58984 438.44141 C 519.86984 438.44141 521.0293 439.40234 521.0293 439.40234 L 519.82812 441.82227 C 519.82813 441.82227 519.16937 441.3418 518.10938 441.3418 C 516.76937 441.3418 515.66992 442.46133 515.66992 443.86133 C 515.66992 445.28133 516.76937 446.40234 518.10938 446.40234 C 519.16937 446.40234 519.82812 445.92188 519.82812 445.92188 L 521.0293 448.38281 C 521.0293 448.38281 519.86984 449.30273 517.58984 449.30273 C 514.62984 449.30273 511.9082 446.90234 511.9082 443.90234 C 511.9082 440.88234 514.60984 438.44141 517.58984 438.44141 z M 553.60352 438.44141 C 556.72352 438.44141 559.10352 440.28281 559.10352 443.88281 C 559.10352 444.02281 559.10398 444.24133 559.08398 444.36133 L 551.64453 444.36133 C 551.64453 445.94133 552.96328 446.48242 553.86328 446.48242 C 555.00328 446.48242 555.50328 446.2618 556.36328 445.3418 L 558.92383 446.62109 C 557.76383 448.56109 555.88352 449.30273 553.60352 449.30273 C 550.50352 449.30273 547.96289 446.86281 547.96289 443.88281 C 547.96289 440.88281 550.50352 438.44141 553.60352 438.44141 z M 572.70703 438.44141 C 574.98703 438.44141 576.14648 439.40234 576.14648 439.40234 L 574.94531 441.82227 C 574.94531 441.82227 574.28656 441.3418 573.22656 441.3418 C 571.88656 441.3418 570.78711 442.46133 570.78711 443.86133 C 570.78711 445.28133 571.88656 446.40234 573.22656 446.40234 C 574.28656 446.40234 574.94531 445.92188 574.94531 445.92188 L 576.14648 448.38281 C 576.14648 448.38281 574.98703 449.30273 572.70703 449.30273 C 569.74703 449.30273 567.02539 446.90234 567.02539 443.90234 C 567.02539 440.88234 569.72703 438.44141 572.70703 438.44141 z M 583.01172 438.44141 C 586.41172 438.44141 589.13086 440.68281 589.13086 443.88281 C 589.13086 447.04281 586.55172 449.30273 583.01172 449.30273 C 579.31172 449.30273 576.83008 447.04281 576.83008 443.88281 C 576.83008 440.68281 579.55172 438.44141 583.01172 438.44141 z M 597.25586 438.44141 C 598.61586 438.44141 600.11398 438.94227 600.83398 440.32227 C 601.91398 439.02227 603.11437 438.44141 604.23438 438.44141 C 606.11437 438.44141 608.23438 439.38219 608.23438 442.24219 L 608.23438 449.00195 L 604.69531 449.00195 L 604.69531 443.20117 C 604.69531 442.18117 604.15453 441.28125 602.89453 441.28125 C 601.77453 441.28125 601.29586 442.10281 601.25586 442.88281 L 601.25586 449.00195 L 597.71484 449.00195 L 597.71484 443.20117 C 597.71484 442.18117 597.17406 441.28125 595.91406 441.28125 C 594.73406 441.28125 594.27539 442.18195 594.27539 443.00195 L 594.27539 449.00195 L 590.73438 449.00195 L 590.73438 438.74219 L 594.27539 438.74219 L 594.27539 439.82227 L 594.31445 439.82227 C 595.11445 439.02227 596.13586 438.44141 597.25586 438.44141 z M 376.67383 438.74219 L 380.75391 438.74219 L 383.61328 444.00195 L 386.05469 438.74219 L 390.13477 438.74219 L 382.07422 454.20117 L 377.99414 454.20117 L 381.5332 447.40234 L 376.67383 438.74219 z M 499.32422 438.74219 L 502.86328 438.74219 L 502.86328 443.62109 C 502.86328 445.64109 503.40477 446.42188 504.88477 446.42188 C 506.36477 446.42187 506.9043 445.64109 506.9043 443.62109 L 506.9043 438.74219 L 510.44336 438.74219 L 510.44336 444.48242 C 510.44336 447.92242 508.72477 449.30273 504.88477 449.30273 C 501.04477 449.30273 499.32422 447.92242 499.32422 444.48242 L 499.32422 438.74219 z M 530.22656 438.74219 L 533.76758 438.74219 L 533.76758 449.00195 L 530.22656 449.00195 L 530.22656 438.74219 z M 534.56445 438.74219 L 538.76367 438.74219 L 541.26367 444.32227 L 543.76367 438.74219 L 547.96484 438.74219 L 542.46484 449.00195 L 540.06445 449.00195 L 534.56445 438.74219 z M 553.70312 440.74219 C 552.48312 440.74219 551.80414 441.46234 551.74414 442.40234 L 555.64453 442.40234 C 555.48453 441.32234 554.74312 440.74219 553.70312 440.74219 z M 342.67773 441.46289 C 341.33773 441.46289 340.2793 442.46281 340.2793 443.88281 C 340.2793 445.28281 341.23773 446.28125 342.67773 446.28125 C 344.05773 446.28125 345.05859 445.28281 345.05859 443.88281 C 345.05859 442.46281 343.99773 441.46289 342.67773 441.46289 z M 356.76953 441.46289 C 355.38953 441.46289 354.39062 442.46133 354.39062 443.86133 C 354.39062 445.28133 355.44953 446.28125 356.76953 446.28125 C 358.10953 446.28125 359.16992 445.28133 359.16992 443.86133 C 359.16992 442.46133 358.20953 441.46289 356.76953 441.46289 z M 370.44141 441.46289 C 369.06141 441.46289 368.0625 442.46133 368.0625 443.86133 C 368.0625 445.28133 369.12141 446.28125 370.44141 446.28125 C 371.78141 446.28125 372.8418 445.28133 372.8418 443.86133 C 372.8418 442.46133 371.88141 441.46289 370.44141 441.46289 z M 405.17773 441.46289 C 403.83773 441.46289 402.7793 442.46281 402.7793 443.88281 C 402.7793 445.28281 403.73773 446.28125 405.17773 446.28125 C 406.55773 446.28125 407.55859 445.28281 407.55859 443.88281 C 407.55859 442.46281 406.49773 441.46289 405.17773 441.46289 z M 432.05273 441.46289 C 430.71273 441.46289 429.6543 442.46281 429.6543 443.88281 C 429.6543 445.28281 430.61273 446.28125 432.05273 446.28125 C 433.43273 446.28125 434.43359 445.28281 434.43359 443.88281 C 434.43359 442.46281 433.37273 441.46289 432.05273 441.46289 z M 454.97266 441.46289 C 453.59266 441.46289 452.59375 442.46133 452.59375 443.86133 C 452.59375 445.28133 453.65266 446.28125 454.97266 446.28125 C 456.31266 446.28125 457.37305 445.28133 457.37305 443.86133 C 457.37305 442.46133 456.41266 441.46289 454.97266 441.46289 z M 478.06836 441.46289 C 476.72836 441.46289 475.66992 442.46281 475.66992 443.88281 C 475.66992 445.28281 476.62836 446.28125 478.06836 446.28125 C 479.44836 446.28125 480.44922 445.28281 480.44922 443.88281 C 480.44922 442.46281 479.38836 441.46289 478.06836 441.46289 z M 491.27148 441.46289 C 489.93148 441.46289 488.87305 442.46281 488.87305 443.88281 C 488.87305 445.28281 489.83148 446.28125 491.27148 446.28125 C 492.65148 446.28125 493.65234 445.28281 493.65234 443.88281 C 493.65234 442.46281 492.59148 441.46289 491.27148 441.46289 z M 582.99023 441.46289 C 581.65023 441.46289 580.5918 442.46281 580.5918 443.88281 C 580.5918 445.28281 581.55023 446.28125 582.99023 446.28125 C 584.37023 446.28125 585.37109 445.28281 585.37109 443.88281 C 585.37109 442.46281 584.31023 441.46289 582.99023 441.46289 z M 390.92969 441.68164 L 397.37109 441.68164 L 397.37109 444.74219 L 390.92969 444.74219 L 390.92969 441.68164 z M 440.30469 441.68164 L 446.74609 441.68164 L 446.74609 444.74219 L 440.30469 444.74219 L 440.30469 441.68164 z M 563.05469 444.72266 C 564.33469 444.72266 565.35352 445.74148 565.35352 447.02148 C 565.35352 448.28148 564.33469 449.30273 563.05469 449.30273 C 561.79469 449.30273 560.77344 448.28148 560.77344 447.02148 C 560.77344 445.74148 561.79469 444.72266 563.05469 444.72266 z "
       id="rect3394-9"
       inkscape:export-xdpi="99"
       inkscape:export-ydpi="99" />
  </g>
</svg>
